<?xml version="1.0" standalone="no"?>
<!DOCTYPE svg PUBLIC "-//W3C//DTD SVG 20010904//EN"
 "http://www.w3.org/TR/2001/REC-SVG-20010904/DTD/svg10.dtd">
<svg version="1.0" xmlns="http://www.w3.org/2000/svg"
 width="608.000000pt" height="608.000000pt" viewBox="0 0 608.000000 608.000000"
 preserveAspectRatio="xMidYMid meet">
<metadata>
Created by potrace 1.11, written by Peter Selinger 2001-2013
</metadata>
<g transform="translate(0.000000,608.000000) scale(0.100000,-0.100000)"
fill="#000000" stroke="none">
<path d="M2870 6034 c-502 -34 -939 -165 -1355 -407 -344 -200 -687 -514 -925
-847 -288 -403 -469 -872 -536 -1385 -24 -179 -23 -534 0 -710 49 -367 133
-647 286 -960 153 -313 320 -546 575 -801 253 -253 485 -420 800 -574 311
-152 591 -236 955 -287 174 -24 559 -24 725 0 383 56 699 152 995 302 122 62
127 60 -152 61 -323 1 -512 27 -748 104 -108 35 -305 129 -395 189 -208 137
-390 352 -506 595 -46 98 -126 313 -118 320 2 2 249 47 549 101 300 53 555 99
568 102 15 4 22 1 22 -10 0 -8 21 -57 47 -108 35 -72 63 -110 117 -164 131
-130 278 -184 521 -192 89 -3 179 -1 222 6 217 34 317 135 283 288 -32 144
-145 203 -553 289 -614 129 -982 264 -1202 441 -33 27 -89 85 -125 130 -205
255 -284 556 -235 898 38 269 146 479 349 681 279 277 608 403 1133 435 419
25 789 -38 1084 -186 190 -96 382 -262 507 -440 59 -84 182 -312 182 -338 0
-7 -206 -74 -493 -161 -270 -82 -497 -151 -504 -153 -7 -3 -25 22 -43 60 -52
111 -148 207 -265 265 -104 52 -183 67 -345 67 -192 0 -278 -24 -346 -97 -79
-84 -71 -228 17 -302 68 -57 158 -87 493 -161 510 -113 841 -208 990 -285 189
-97 345 -244 460 -435 l34 -58 11 39 c42 165 70 377 77 599 22 626 -155 1243
-506 1766 -390 581 -982 1014 -1652 1208 -136 40 -322 78 -463 96 -113 14
-436 26 -535 19z"/>
</g>
</svg>
